<svg data-v-d16af0da="" version="1.1" xmlns="http://www.w3.org/2000/svg" xmlns:xlink="http://www.w3.org/1999/xlink" x="0px" y="0px" viewBox="0 0 970 493" xml:space="preserve" class="logo"><rect data-v-d16af0da="" x="0.1" y="0" fill="none" class="st0"></rect>
								<path fill="#2289e4" data-v-d16af0da="" d="
            M235,207.3c3.6-17.3-2.9-29.7-14.5-37.8c-10.6-7.1-24-8.1-38.2-1.1L123.3,195
            c-14.8,6.7-21.2,24-14.8,38.5c6.7,14.8,23.7,21.2,38.5,14.8l7.8-3.6l-12.7,69c-3.6,20.8,9.9,37.8,28.3,41.4
            c19.5,3.6,38.5-9.2,41.7-28.7L235,207.3z
        " class="st1"></path><path fill="#fff" data-v-d16af0da="" d="
            M771.7,164.4c-32.5-4.7-65.3,14.3-77.8,41.1l2.1-11.7c5.3-23.7-4.6-30-21.5-30h-21.9
            c-20.8,0-25.5,11.3-28,24.4l-25.5,141.4c-2.1,9.6-0.7,26.2,18,26.2h20.4c18,0,21.5-14.1,24-27.6l12.3-67.9
            c2.9-15.5,5.3-23,10.6-28.7c8.1-9.2,24.4-13.4,35.7-4.2c6.7,5.6,
            9.2,15.2,7.4,28.7l-12.3,73.5c-2.7,16.3,4.2,26.2,17.7,26.2h20.4
            c17.3,0,20.8-13.4,23.3-27.6l17.8-92.1C822.7,202.9,811,170.1,771.7,164.4z
        " class="st2"></path><ellipse fill="#2289e4" data-v-d16af0da="" cx="576.8" cy="110.7" rx="35" ry="34.7" class="st3"></ellipse><path fill="#fff" data-v-d16af0da="" d="
            M579,328c-2.5,14.8-6.7,27.6-24,27.6h-30.7c-14.8,0-20.2-11-17.3-25.5L532.2,188
            c2.5-15.2,9.2-24.4,28-24.4h23.3c19.8,0,24.7,9.6,20.5,30L579,328z
        " class="st4"></path><path fill="#fff" data-v-d16af0da="" d="
            M241.2,163.6c7.8,9.2,17,20.5,12.3,48.1l-12,64.8l2.1,52c0.4,18.8,9.6,26.9,25.1,26.9h29.6
            c12.3,0,17.7-9.6,22.6-21.5l30-73.9l3.2,70.7c0.4,15.5,8.1,25.1,22.6,
            25.1h44.9c12.7,0,18-7.8,23.7-21.5l57.6-141.4
            c6.3-14.5,2.5-29-13.1-29h-28.7c-10.6,0-18,3.6-22.3,13.8l-38.9,94.6l-3.6-84.5c-0.7-18-9.2-24-19.5-24h-29.3
            c-11.7,0-18.4,4.6-21.9,13.4l-38.9,95.5l-3.6-87c-0.4-16.3-6-21.9-19.1-21.9H249H241.2L241.2,163.6z
        " class="st5"></path></svg>